<mxfile host="65bd71144e">
    <diagram id="SQz-jW7jYEupffBCN8sf" name="Страница 1">
        <mxGraphModel dx="1374" dy="1951" grid="1" gridSize="10" guides="1" tooltips="1" connect="1" arrows="1" fold="1" page="1" pageScale="1" pageWidth="827" pageHeight="1169" math="0" shadow="0">
            <root>
                <mxCell id="0"/>
                <mxCell id="1" parent="0"/>
                <mxCell id="4" value="Person" style="swimlane;fontStyle=1;childLayout=stackLayout;horizontal=1;startSize=30;horizontalStack=0;resizeParent=1;resizeParentMax=0;resizeLast=0;collapsible=1;marginBottom=0;swimlaneLine=1;" parent="1" vertex="1">
                    <mxGeometry x="237" y="120" width="290" height="300" as="geometry"/>
                </mxCell>
                <mxCell id="5" value="# name : string&#10;# age : int" style="text;strokeColor=none;fillColor=none;align=left;verticalAlign=middle;spacingLeft=4;spacingRight=4;overflow=hidden;points=[[0,0.5],[1,0.5]];portConstraint=eastwest;rotatable=0;" parent="4" vertex="1">
                    <mxGeometry y="30" width="290" height="60" as="geometry"/>
                </mxCell>
                <mxCell id="6" value="+ Person()&#10;+ ~Person() : virtual&#10;+ Show() : void&#10;+ input() : void&#10;+ Person(n : string, a : int)&#10;+ Person(tmp : const Person&amp;)&#10;+ GetName() : string&#10;+ GetAge() : int&#10;+ SetName(n : string) : void&#10;+ SetAge(a : int) : void&#10;+ operator=(tmp : const Person&amp;) : Person&amp;&#10;+ HandleEvent(e : const TEvent&amp;) : void" style="text;strokeColor=default;fillColor=none;align=left;verticalAlign=middle;spacingLeft=4;spacingRight=4;overflow=hidden;points=[[0,0.5],[1,0.5]];portConstraint=eastwest;rotatable=0;" parent="4" vertex="1">
                    <mxGeometry y="90" width="290" height="210" as="geometry"/>
                </mxCell>
                <mxCell id="26" value="Employee" style="swimlane;fontStyle=1;childLayout=stackLayout;horizontal=1;startSize=30;horizontalStack=0;resizeParent=1;resizeParentMax=0;resizeLast=0;collapsible=1;marginBottom=0;swimlaneLine=1;" parent="1" vertex="1">
                    <mxGeometry x="217" y="490" width="330" height="320" as="geometry"/>
                </mxCell>
                <mxCell id="27" value="# zp : float&#10;# job : string" style="text;strokeColor=none;fillColor=none;align=left;verticalAlign=middle;spacingLeft=4;spacingRight=4;overflow=hidden;points=[[0,0.5],[1,0.5]];portConstraint=eastwest;rotatable=0;" parent="26" vertex="1">
                    <mxGeometry y="30" width="330" height="100" as="geometry"/>
                </mxCell>
                <mxCell id="28" value="+ Employee()&#10;+ ~Employee()&#10;+ Show()&#10;+ input()&#10;+ Employee(n : string, a : int, z : float, j : string)&#10;+ Employee(tmp : const Employee&amp;)&#10;+ GetZp()&#10;+ GetJob()&#10;+ SetZp(z : float)&#10;+ SetJob(j : string)&#10;+ operator=(tmp : const Employee&amp;)" style="text;strokeColor=default;fillColor=none;align=left;verticalAlign=middle;spacingLeft=4;spacingRight=4;overflow=hidden;points=[[0,0.5],[1,0.5]];portConstraint=eastwest;rotatable=0;fontStyle=0" parent="26" vertex="1">
                    <mxGeometry y="130" width="330" height="190" as="geometry"/>
                </mxCell>
                <mxCell id="29" value="Object" style="swimlane;fontStyle=1;childLayout=stackLayout;horizontal=1;startSize=26;fillColor=none;horizontalStack=0;resizeParent=1;resizeParentMax=0;resizeLast=0;collapsible=1;marginBottom=0;" vertex="1" parent="1">
                    <mxGeometry x="244" y="-100" width="276" height="150" as="geometry"/>
                </mxCell>
                <mxCell id="30" value="+ Object()&#10;+ Show() : virtual void&#10;+ input() : virtual void&#10;+ ~Object : virtual&#10;+ HandleEvent(e : const TEvent&amp;) : virtual void" style="text;strokeColor=none;fillColor=none;align=left;verticalAlign=top;spacingLeft=4;spacingRight=4;overflow=hidden;rotatable=0;points=[[0,0.5],[1,0.5]];portConstraint=eastwest;" vertex="1" parent="29">
                    <mxGeometry y="26" width="276" height="124" as="geometry"/>
                </mxCell>
                <mxCell id="37" value="Vector" style="swimlane;fontStyle=1;childLayout=stackLayout;horizontal=1;startSize=30;horizontalStack=0;resizeParent=1;resizeParentMax=0;resizeLast=0;collapsible=1;marginBottom=0;swimlaneLine=1;" vertex="1" parent="1">
                    <mxGeometry x="850" y="-70" width="310" height="320" as="geometry"/>
                </mxCell>
                <mxCell id="38" value="# beg : Object**&#10;# size : int&#10;# cur : int" style="text;strokeColor=none;fillColor=none;align=left;verticalAlign=middle;spacingLeft=4;spacingRight=4;overflow=hidden;points=[[0,0.5],[1,0.5]];portConstraint=eastwest;rotatable=0;" vertex="1" parent="37">
                    <mxGeometry y="30" width="310" height="100" as="geometry"/>
                </mxCell>
                <mxCell id="39" value="+ Vector()&#10;+ Vector(n : int)&#10;+ ~Vector()&#10;+ Add()&#10;+ Show()&#10;+ operator()()&#10;+ Del()&#10;+ Find(tmp : int)&#10;+ HandleEvent(e : const TEvent&amp;)" style="text;strokeColor=default;fillColor=none;align=left;verticalAlign=middle;spacingLeft=4;spacingRight=4;overflow=hidden;points=[[0,0.5],[1,0.5]];portConstraint=eastwest;rotatable=0;fontStyle=0" vertex="1" parent="37">
                    <mxGeometry y="130" width="310" height="190" as="geometry"/>
                </mxCell>
                <mxCell id="40" value="Dialog" style="swimlane;fontStyle=1;childLayout=stackLayout;horizontal=1;startSize=30;horizontalStack=0;resizeParent=1;resizeParentMax=0;resizeLast=0;collapsible=1;marginBottom=0;swimlaneLine=1;" vertex="1" parent="1">
                    <mxGeometry x="850" y="330" width="310" height="290" as="geometry"/>
                </mxCell>
                <mxCell id="41" value="# EndState : int" style="text;strokeColor=none;fillColor=none;align=left;verticalAlign=middle;spacingLeft=4;spacingRight=4;overflow=hidden;points=[[0,0.5],[1,0.5]];portConstraint=eastwest;rotatable=0;" vertex="1" parent="40">
                    <mxGeometry y="30" width="310" height="70" as="geometry"/>
                </mxCell>
                <mxCell id="42" value="+ Dialog()&#10;+ ~Dialog()&#10;+ GetEvent(event : TEvent&amp;)&#10;+ Execute()&#10;+ Valid()&#10;+ ClearEvent(event : TEvent&amp;)&#10;+ EndExec()&#10;+ HandleEvent(event TEvent&amp;)&#10;" style="text;strokeColor=default;fillColor=none;align=left;verticalAlign=middle;spacingLeft=4;spacingRight=4;overflow=hidden;points=[[0,0.5],[1,0.5]];portConstraint=eastwest;rotatable=0;fontStyle=0" vertex="1" parent="40">
                    <mxGeometry y="100" width="310" height="190" as="geometry"/>
                </mxCell>
                <mxCell id="43" value="" style="endArrow=block;endSize=16;endFill=0;html=1;exitX=0.5;exitY=0;exitDx=0;exitDy=0;" edge="1" parent="1" source="4" target="30">
                    <mxGeometry width="160" relative="1" as="geometry">
                        <mxPoint x="650" y="200" as="sourcePoint"/>
                        <mxPoint x="810" y="200" as="targetPoint"/>
                    </mxGeometry>
                </mxCell>
                <mxCell id="44" value="" style="endArrow=block;endSize=16;endFill=0;html=1;exitX=0.5;exitY=0;exitDx=0;exitDy=0;" edge="1" parent="1" source="26" target="6">
                    <mxGeometry width="160" relative="1" as="geometry">
                        <mxPoint x="660" y="210" as="sourcePoint"/>
                        <mxPoint x="820" y="210" as="targetPoint"/>
                    </mxGeometry>
                </mxCell>
                <mxCell id="45" value="" style="endArrow=block;endSize=16;endFill=0;html=1;exitX=0.5;exitY=0;exitDx=0;exitDy=0;entryX=0.503;entryY=1;entryDx=0;entryDy=0;entryPerimeter=0;" edge="1" parent="1" source="40" target="39">
                    <mxGeometry width="160" relative="1" as="geometry">
                        <mxPoint x="670" y="220" as="sourcePoint"/>
                        <mxPoint x="830" y="220" as="targetPoint"/>
                    </mxGeometry>
                </mxCell>
                <mxCell id="46" value="" style="endArrow=open;endFill=1;endSize=12;html=1;exitX=0;exitY=0.5;exitDx=0;exitDy=0;" edge="1" parent="1" source="38" target="30">
                    <mxGeometry width="160" relative="1" as="geometry">
                        <mxPoint x="740" y="230" as="sourcePoint"/>
                        <mxPoint x="900" y="230" as="targetPoint"/>
                    </mxGeometry>
                </mxCell>
            </root>
        </mxGraphModel>
    </diagram>
</mxfile>